<?xml version="1.0" standalone="no"?>
<!DOCTYPE svg PUBLIC "-//W3C//DTD SVG 20010904//EN"
 "http://www.w3.org/TR/2001/REC-SVG-20010904/DTD/svg10.dtd">
<svg version="1.0" xmlns="http://www.w3.org/2000/svg"
 width="2000.000000pt" height="2000.000000pt" viewBox="0 0 2000.000000 2000.000000"
 preserveAspectRatio="xMidYMid meet">

<g transform="translate(0.000000,2000.000000) scale(0.100000,-0.100000)"
fill="#ffffff" stroke="none">
<path d="M8720 17585 c-304 -48 -592 -222 -778 -470 -64 -86 -141 -234 -176
-340 -52 -157 -56 -205 -56 -761 l0 -514 -32 -15 c-18 -8 -82 -33 -143 -56
-60 -23 -164 -66 -229 -96 -66 -29 -124 -53 -130 -53 -6 0 -175 164 -376 364
-369 368 -432 421 -575 493 -87 44 -221 90 -322 109 -105 21 -326 23 -423 5
-187 -35 -379 -118 -520 -225 -51 -38 -286 -266 -582 -563 -540 -542 -568
-575 -651 -768 -63 -144 -88 -258 -94 -421 -9 -216 24 -383 108 -563 83 -178
127 -231 516 -620 l364 -365 -53 -115 c-29 -64 -78 -181 -108 -261 l-57 -145
-544 -6 c-585 -6 -583 -6 -755 -64 -416 -140 -734 -518 -799 -952 -22 -144
-22 -1422 0 -1566 65 -434 383 -812 799 -952 172 -58 170 -58 755 -64 l544 -6
57 -145 c30 -80 80 -197 109 -261 l52 -117 -354 -353 c-195 -195 -377 -385
-406 -424 -67 -92 -154 -268 -185 -376 -38 -134 -49 -235 -43 -393 6 -163 31
-277 94 -421 83 -193 111 -226 651 -768 296 -297 531 -525 582 -563 141 -107
333 -190 520 -225 97 -18 318 -16 423 5 101 19 235 65 322 109 143 72 206 125
575 493 201 200 370 364 376 364 6 0 64 -24 130 -53 65 -30 169 -73 229 -96
61 -23 125 -48 143 -56 l32 -15 0 -514 c0 -557 4 -605 56 -761 144 -432 514
-743 964 -811 138 -20 1422 -20 1560 0 475 72 866 422 985 881 37 141 45 279
45 777 l0 436 48 18 c88 32 307 122 386 158 43 20 83 36 89 36 6 0 176 -164
377 -364 369 -368 432 -421 575 -493 87 -44 221 -90 322 -109 107 -21 318 -23
423 -5 108 19 270 74 362 123 145 78 234 157 740 665 540 542 568 575 651 768
63 144 88 258 94 421 6 158 -5 259 -43 393 -31 108 -118 284 -185 376 -29 39
-211 229 -406 423 l-355 353 53 117 c29 64 79 182 109 262 l57 145 544 6 c585
6 583 6 755 64 416 140 734 518 799 952 22 144 22 1422 0 1566 -65 434 -383
812 -799 952 -172 58 -170 58 -755 64 l-544 6 -57 145 c-30 80 -80 197 -109
262 l-53 116 365 364 c390 388 432 439 516 619 84 180 117 347 108 563 -6 163
-31 277 -94 421 -83 193 -111 226 -651 768 -506 508 -595 587 -740 665 -92 49
-254 104 -362 123 -105 18 -316 16 -423 -5 -101 -19 -235 -65 -322 -109 -143
-72 -206 -125 -575 -493 -201 -200 -371 -364 -377 -364 -6 0 -46 16 -89 36
-79 36 -298 126 -386 158 l-48 18 0 436 c0 240 -5 491 -10 557 -29 374 -221
705 -527 909 -157 104 -312 164 -493 192 -132 20 -1442 19 -1570 -1z m1390
-1887 c0 -782 0 -783 66 -918 46 -93 160 -210 250 -257 33 -18 123 -50 200
-72 357 -102 693 -242 977 -406 153 -88 189 -99 347 -99 116 -1 144 2 202 22
127 44 169 81 691 600 l497 497 425 -425 425 -425 -508 -505 c-371 -369 -517
-520 -540 -561 -57 -99 -75 -163 -80 -285 -5 -134 10 -204 69 -313 243 -450
334 -664 439 -1034 52 -180 86 -243 180 -337 86 -87 163 -131 276 -160 73 -19
113 -20 791 -20 l713 0 0 -600 0 -600 -713 0 c-678 0 -718 -1 -791 -20 -113
-29 -190 -73 -276 -160 -94 -94 -128 -157 -180 -337 -105 -370 -196 -584 -439
-1034 -59 -109 -74 -179 -69 -313 5 -122 23 -186 80 -285 23 -41 169 -193 540
-561 l508 -505 -425 -425 -424 -424 -503 500 c-415 413 -515 508 -573 541
-113 66 -161 78 -310 78 -160 0 -187 -8 -383 -117 -307 -171 -583 -284 -946
-389 -77 -22 -167 -54 -200 -72 -90 -47 -204 -164 -250 -257 -66 -135 -66
-136 -66 -917 l0 -703 -600 0 -600 0 0 703 c0 781 0 782 -66 917 -46 93 -160
210 -250 257 -33 18 -123 50 -200 72 -363 105 -639 218 -946 389 -196 109
-223 117 -383 117 -110 0 -140 -4 -197 -23 -127 -44 -170 -81 -691 -600 l-498
-496 -424 424 -424 424 508 505 c370 369 516 521 539 562 57 99 75 163 80 285
5 134 -10 204 -69 313 -243 450 -334 664 -439 1034 -52 180 -86 243 -180 337
-86 87 -163 131 -276 160 -73 19 -113 20 -791 20 l-713 0 0 600 0 600 713 0
c678 0 718 1 791 20 113 29 190 73 276 160 94 94 128 157 180 337 105 370 196
584 439 1034 59 109 74 179 69 313 -5 122 -23 186 -80 285 -23 41 -168 192
-539 561 l-508 506 424 424 425 425 497 -497 c522 -519 564 -556 691 -600 58
-20 86 -23 202 -22 158 0 194 11 347 99 284 164 620 304 977 406 77 22 167 54
200 72 90 47 204 164 250 257 66 135 66 136 66 918 l0 702 600 0 600 0 0 -702z"/>
<path d="M9240 13388 c-616 -57 -1199 -300 -1670 -696 -121 -101 -314 -299
-413 -423 -184 -230 -370 -559 -471 -832 -254 -691 -243 -1470 29 -2147 308
-767 925 -1379 1695 -1683 208 -82 425 -139 680 -178 124 -19 185 -23 420 -23
296 0 430 14 672 70 434 99 853 300 1200 576 128 102 334 302 439 428 705 844
892 2015 484 3030 -396 986 -1294 1698 -2335 1854 -238 36 -510 45 -730 24z
m458 -1199 c299 -32 569 -131 824 -301 150 -100 357 -302 461 -448 188 -266
308 -604 325 -917 20 -346 -40 -640 -189 -933 -95 -187 -180 -301 -339 -461
-250 -251 -534 -408 -871 -483 -498 -110 -984 -19 -1411 266 -150 100 -357
302 -461 448 -136 194 -245 444 -299 690 -20 93 -22 132 -22 350 0 218 2 257
22 350 54 246 163 496 299 690 104 146 311 348 461 448 362 241 782 347 1200
301z"/>
</g>
</svg>
